<svg width="85" height="45" fill="none" xmlns="http://www.w3.org/2000/svg"><rect x="1" y="1" width="83" height="43" rx=".5" fill="#273242"/><rect x="1" y="1" width="83" height="43" rx=".5" stroke="#2A394E"/><g clip-path="url(#clip0_258_304)"><g clip-path="url(#clip1_258_304)"><path d="M37.714 24.084v-2.683c0-1.012-.642-1.694-1.675-1.703a1.646 1.646 0 00-1.496.762 1.561 1.561 0 00-1.406-.762 1.406 1.406 0 00-1.245.637V19.8h-.927v4.285h.936v-2.373c0-.744.409-1.138 1.042-1.138s.926.402.926 1.129v2.382h.93v-2.373c0-.744.427-1.138 1.043-1.138.615 0 .935.402.935 1.129v2.382h.937zm13.842-4.282h-1.513v-1.298h-.936v1.298h-.864v.852h.864v1.95c0 .995.383 1.587 1.478 1.587.41.002.81-.113 1.158-.33l-.267-.798c-.248.149-.53.232-.82.241-.462 0-.615-.286-.615-.715v-1.935h1.514l.001-.852zm7.902-.107a1.254 1.254 0 00-1.122.628v-.52h-.918v4.281h.927v-2.4c0-.716.302-1.102.909-1.102.198-.003.395.034.58.107l.284-.878a1.968 1.968 0 00-.66-.116zm-11.946.447a3.169 3.169 0 00-1.738-.447c-1.077 0-1.778.52-1.778 1.37 0 .7.516 1.128 1.47 1.263l.435.062c.507.072.748.206.748.447 0 .331-.337.52-.97.52a2.26 2.26 0 01-1.423-.446l-.422.724a3.06 3.06 0 001.844.556c1.23 0 1.943-.583 1.943-1.397 0-.753-.563-1.146-1.487-1.28l-.436-.063c-.4-.053-.722-.134-.722-.42 0-.313.302-.5.81-.5.467.006.923.132 1.328.366l.398-.755zm24.813-.447c-.46-.014-.89.227-1.122.628v-.52h-.918v4.281h.927v-2.4c0-.716.302-1.102.909-1.102.198-.003.395.034.58.107l.284-.878a1.97 1.97 0 00-.66-.116zm-11.931 2.248c0 1.299.9 2.248 2.27 2.248a2.223 2.223 0 001.532-.511l-.445-.753c-.32.245-.71.38-1.113.384-.74 0-1.282-.547-1.282-1.37 0-.822.544-1.36 1.282-1.37.403.005.793.14 1.113.385l.445-.753a2.222 2.222 0 00-1.531-.512c-1.372 0-2.271.95-2.271 2.248v.004zm8.675 0v-2.146h-.927v.52a1.611 1.611 0 00-1.344-.628c-1.193 0-2.134.941-2.134 2.249 0 1.307.935 2.248 2.134 2.248a1.611 1.611 0 001.344-.628v.519h.927v-2.134zm-3.447 0c0-.753.49-1.37 1.291-1.37.767 0 1.283.592 1.283 1.37 0 .778-.516 1.37-1.282 1.37-.803 0-1.292-.619-1.292-1.37zm-11.18-2.248c-1.244 0-2.12.914-2.12 2.248 0 1.361.91 2.248 2.183 2.248a2.58 2.58 0 001.746-.6l-.453-.691a2.021 2.021 0 01-1.245.447c-.598 0-1.14-.277-1.273-1.048h3.162a4.58 4.58 0 00.018-.358c0-1.334-.83-2.248-2.023-2.248l.006.002zm-.017.833c.598 0 .98.376 1.078 1.04h-2.207c.097-.62.47-1.04 1.13-1.04h-.001zm23.236 1.415v-3.862h-.927v2.24a1.611 1.611 0 00-1.344-.628c-1.194 0-2.135.94-2.135 2.248 0 1.308.936 2.248 2.135 2.248a1.611 1.611 0 001.344-.627v.518h.927v-2.137zm1.083 1.746a.272.272 0 01.252.166.267.267 0 01-.058.297.268.268 0 01-.194.08.276.276 0 01-.256-.166.27.27 0 01.146-.356.277.277 0 01.113-.021h-.003zm0 .483a.2.2 0 00.147-.061.213.213 0 00-.065-.345.202.202 0 00-.082-.016.208.208 0 00-.084.016.213.213 0 00-.067.345.21.21 0 00.154.06h-.003zm.016-.34a.113.113 0 01.075.021.072.072 0 01.026.06.07.07 0 01-.021.051.1.1 0 01-.059.025l.082.095H78.8l-.077-.095h-.024v.095h-.054v-.25l.116-.002zm-.062.046v.068h.062a.06.06 0 00.034 0 .03.03 0 00.012-.025.03.03 0 00-.012-.025.059.059 0 00-.034 0l-.062-.018zm-4.48-1.935c0-.753.489-1.37 1.29-1.37.767 0 1.283.592 1.283 1.37 0 .778-.516 1.37-1.282 1.37-.802 0-1.291-.619-1.291-1.37zm-31.284 0v-2.146h-.926v.52a1.611 1.611 0 00-1.34-.622c-1.193 0-2.134.94-2.134 2.248 0 1.307.936 2.248 2.134 2.248a1.611 1.611 0 001.345-.627v.518h.927l-.006-2.139zm-3.446 0c0-.753.489-1.37 1.29-1.37.767 0 1.283.592 1.283 1.37 0 .778-.516 1.37-1.282 1.37-.802 0-1.291-.617-1.291-1.37z" fill="#fff"/><path d="M19.142 16.852H13.54v10.126h5.602V16.852z" fill="#FF5F00"/><path d="M13.896 21.917a6.441 6.441 0 012.445-5.061 6.378 6.378 0 00-8.99 1.083c-2.185 2.796-1.703 6.844 1.078 9.042a6.374 6.374 0 007.912 0 6.442 6.442 0 01-2.446-5.064z" fill="#EB001B"/><path d="M26.7 21.918c0 3.556-2.866 6.439-6.402 6.439a6.38 6.38 0 01-3.957-1.377c2.78-2.198 3.263-6.245 1.078-9.041a6.42 6.42 0 00-1.078-1.084 6.378 6.378 0 018.99 1.082 6.462 6.462 0 011.37 3.981zm-.615 3.987v-.208h.084v-.04h-.208v.042h.084v.207l.04-.001zm.411 0v-.25h-.055l-.075.178-.074-.179h-.066v.25h.037v-.187l.07.163h.048l.069-.163v.19l.046-.002z" fill="#F79E1B"/></g></g><defs><clipPath id="clip0_258_304"><path fill="#fff" transform="translate(1.3 10.5)" d="M0 0h82.4v24H0z"/></clipPath><clipPath id="clip1_258_304"><path fill="#fff" transform="translate(1.3 10.5)" d="M0 0h82.4v24H0z"/></clipPath></defs></svg>