<svg width="85" height="45" fill="none" xmlns="http://www.w3.org/2000/svg"><rect x="1" y="1" width="83" height="43" rx=".5" fill="#273242"/><rect x="1" y="1" width="83" height="43" rx=".5" stroke="#2A394E"/><g clip-path="url(#clip0_258_313)"><g clip-path="url(#clip1_258_313)" fill="#F5F5F5"><path d="M21.276 23.605V24.8c0 .598-.297.86-.854.784-1.04-.149-1.931-.56-2.563-1.419-.854-1.157-.668-2.726.41-3.734.742-.71 1.67-1.084 2.673-1.27 1.597-.336 3.194-.262 4.716.448.928.41 1.708 1.008 2.19 1.942.075.15.15.262.15.448 0 .112 0 .187-.075.262-.111.074-.222.037-.297-.038-.074-.037-.111-.112-.186-.186-1.373-1.27-2.933-1.681-4.753-1.27-.854.186-1.374.784-1.411 1.494 0 .448.037.896 0 1.344z"/><path d="M23.986 23.605V22.41c0-.56.334-.822.892-.747.928.15 1.745.485 2.376 1.232 1.04 1.195.891 2.876-.297 3.96-.743.671-1.597 1.045-2.525 1.232-1.597.336-3.157.298-4.68-.374-.78-.336-1.447-.784-1.967-1.42a2.7 2.7 0 01-.52-.895c-.037-.15-.112-.3.074-.374.149-.112.297 0 .408.112.483.523 1.077.896 1.746 1.158 1.04.41 2.08.485 3.157.187.928-.262 1.374-.86 1.374-1.83-.038-.374-.038-.71-.038-1.046zm11.884-4.631c.668 0 1.3.112 1.857.336.148.075.185.15.148.261a8.776 8.776 0 00-.148.971c-.038.224-.038.224-.26.112-1.263-.634-2.526-.56-3.677.262-1.04.747-1.337 1.83-1.225 3.062.297 2.764 3.193 3.474 4.902 2.502.222-.111.222-.111.26.15.037.336.11.635.148.971.037.112 0 .187-.111.261-1.969.785-4.68.225-5.942-1.718-1.411-2.203-.928-6.311 3.045-7.095a9.754 9.754 0 011.003-.075zm27.035 0c.63 0 1.188.075 1.708.261.148.038.148.112.148.224a7.544 7.544 0 00-.148.897c-.037.261-.037.224-.26.15-.668-.337-1.411-.374-2.117-.188-.557.15-.817.523-.854 1.046 0 .261.074.485.26.672.223.224.483.374.743.523.557.336 1.15.598 1.67.971.52.374.93.822 1.078 1.457.26 1.195-.149 2.614-1.894 3.1-1.04.298-2.08.149-3.082-.262-.112-.037-.149-.112-.112-.224a10.3 10.3 0 00.186-1.046c.037-.186.111-.15.223-.075a3.038 3.038 0 002.34.411c.63-.15 1.002-.597 1.039-1.27.037-.298-.074-.56-.297-.784-.297-.299-.669-.523-1.04-.71-.52-.298-1.04-.56-1.522-.933-.669-.523-1.077-1.195-.966-2.091.149-.934.706-1.569 1.56-1.905.482-.15.928-.224 1.337-.224zm-5.162 8.328c-.446.523-.966.86-1.634.934-.966.15-1.894-.336-2.266-1.195-.371-.859-.185-1.905.483-2.465.483-.41 1.003-.597 1.634-.672.52-.075 1.04-.038 1.597-.038.186 0 .223-.074.223-.224 0-.112-.037-.186-.037-.298-.075-.411-.26-.635-.669-.673-.557-.074-1.114-.037-1.708-.037h-.743c-.111 0-.185-.037-.148-.187.074-.299.111-.597.148-.896 0-.075.037-.15.149-.15.817 0 1.634-.074 2.45.038 1.152.15 1.746.822 1.783 1.98.075 1.344 0 2.726.037 4.07 0 .56 0 .56-.557.56-.222 0-.483.075-.63-.037-.112-.112-.038-.41-.038-.598-.074 0-.074-.037-.074-.112zM57 24.987c-.52.037-1.003.037-1.448.224-.52.187-.743.56-.632 1.083.074.485.446.747.966.784 1.188.038 1.93-.747 1.857-1.942 0-.112-.038-.15-.149-.15H57zm-14.038 2.315c-.408.448-.854.747-1.373.897-1.226.298-2.451-.374-2.674-1.569-.186-1.083.223-2.091 1.597-2.54.556-.186 1.15-.186 1.745-.186h.557c.111 0 .148-.038.148-.15 0-.149-.037-.26-.037-.41-.074-.411-.297-.598-.668-.673-.557-.074-1.114-.037-1.634-.037h-.78c-.111 0-.186-.037-.148-.15.074-.298.111-.597.148-.896 0-.074.037-.15.111-.15.818 0 1.635-.074 2.414.038 1.189.15 1.783.822 1.82 2.054.037 1.046 0 2.13.037 3.175v1.232c0 .15-.037.187-.186.187h-.89c-.15 0-.187-.037-.187-.187v-.635zm-.89-2.315c-.26.037-.558.037-.892.075-.111 0-.26.037-.371.074-.557.187-.817.56-.743 1.083.074.486.446.785 1.04.785 1.151 0 1.894-.822 1.782-1.942 0-.112-.037-.112-.111-.112-.186.037-.409.037-.706.037zm8.281-.262v-1.867c0-.15-.037-.224-.223-.224h-.743c-.111 0-.185-.037-.148-.15.074-.298.111-.634.185-.933 0-.112.075-.112.149-.112h.631c.112 0 .149-.038.149-.15v-.859c0-.111.037-.149.148-.186.335-.112.632-.224.966-.336.148-.075.223-.038.186.149v1.233c0 .149.037.186.185.149h1.226c.148 0 .185.037.148.187a6.92 6.92 0 00-.148.859c0 .149-.075.186-.223.186H51.8c-.111 0-.148.038-.148.15v3.473c0 .635.334.859.928.635.111-.037.223-.075.334-.15.112-.074.149-.037.149.113v1.045c0 .075-.037.112-.112.15-.557.186-1.077.224-1.634.074-.482-.15-.742-.523-.854-.97-.111-.374-.111-.785-.111-1.196v-1.27zm-3.64-2.539c.483-.56 1.077-.747 1.746-.71.111 0 .185.038.148.187-.074.299-.111.598-.148.896 0 .112-.075.15-.186.15-.223 0-.408.037-.631.112-.557.187-.854.56-.892 1.27-.037 1.045 0 2.091 0 3.137v.784c0 .112-.037.15-.148.15h-.928c-.149 0-.186-.075-.186-.187V21.7c0-.224.074-.261.26-.261h.817c.111 0 .186.037.148.15v.597zM67.51 24.8v3.063c0 .186-.038.261-.224.261h-.89c-.15 0-.186-.037-.186-.187V21.7c0-.149.037-.224.185-.186h.892c.148 0 .185.074.185.224a84.29 84.29 0 01.037 3.062zm-44.897-6.984c-.335 0-.632-.112-.892-.299-.594-.448-.631-1.27 0-1.755.483-.373 1.226-.373 1.708-.037.669.448.669 1.307.038 1.792-.223.225-.52.3-.854.3zm45.157 1.98a.906.906 0 01-.892.896.906.906 0 01-.891-.896c0-.486.409-.897.928-.897.483-.037.854.374.854.897z"/></g></g><defs><clipPath id="clip0_258_313"><path fill="#fff" transform="translate(1.3 10.5)" d="M0 0h82.4v24H0z"/></clipPath><clipPath id="clip1_258_313"><path fill="#fff" transform="translate(1.3 10.5)" d="M0 0h82.4v24H0z"/></clipPath></defs></svg>