<svg width="85" height="45" fill="none" xmlns="http://www.w3.org/2000/svg"><rect x="1" y="1" width="83" height="43" rx=".5" fill="#273242"/><rect x="1" y="1" width="83" height="43" rx=".5" stroke="#2A394E"/><g clip-path="url(#clip0_258_296)"><g clip-path="url(#clip1_258_296)" fill="#fff"><path d="M62.28 28.389h-3.04c-.11-.537-.23-1.063-.324-1.594-.04-.22-.11-.305-.353-.302a174.16 174.16 0 01-3.657.002c-.185-.001-.258.06-.314.23a40.229 40.229 0 01-.54 1.503c-.026.068-.11.16-.168.16-1.099.01-2.198.008-3.328.008.206-.499.401-.975.6-1.45l4.25-10.198c.307-.736.767-1.045 1.559-1.045h2.669c.088.415.177.823.262 1.232.697 3.36 1.392 6.72 2.091 10.078.09.43.195.857.294 1.286v.09zm-3.978-4.508l-.963-4.644-.04-.008-1.676 4.652h2.679zm-9.264-8.404c.4.075.805.137 1.202.229.363.084.718.201 1.103.312l-.57 2.676c-.508-.15-.993-.322-1.493-.433-.683-.152-1.382-.21-2.066-.018a2.09 2.09 0 00-.777.416c-.375.323-.38.788-.022 1.127.247.234.54.426.832.603.665.402 1.364.752 2.01 1.182.762.506 1.317 1.202 1.433 2.142.206 1.664-.405 2.974-1.795 3.901-.874.583-1.863.844-2.893.94a10.283 10.283 0 01-4.224-.481c-.092-.03-.181-.069-.271-.106-.027-.01-.05-.03-.091-.056l.588-2.772c.234.103.454.206.68.297 1.073.435 2.182.634 3.332.418.299-.057.604-.19.857-.36.55-.371.603-1.068.102-1.504-.329-.286-.725-.497-1.1-.727-.586-.359-1.208-.665-1.763-1.067-.71-.515-1.225-1.201-1.322-2.114-.146-1.366.358-2.475 1.4-3.337.908-.75 1.985-1.083 3.133-1.223.063-.007.126-.03.188-.045h1.527zm-11.821.236c-.171.414-.333.808-.497 1.2-1.564 3.754-3.13 7.507-4.689 11.263-.074.179-.165.226-.345.224a132.97 132.97 0 00-2.963.002c-.209.003-.277-.07-.325-.26-.838-3.28-1.689-6.557-2.516-9.84-.152-.603-.456-1.014-1.026-1.267-.914-.404-1.863-.689-2.83-.92l-.126-.031c.005-.38.005-.381.365-.381h5.184c.82 0 1.412.48 1.567 1.295.438 2.31.868 4.621 1.301 6.932.019.101.04.202.07.344.044-.085.075-.132.096-.184 1.073-2.73 2.147-5.46 3.215-8.192.058-.15.13-.2.29-.199 1.002.008 2.005.004 3.007.004.065 0 .13.006.222.01zm-1.309 12.683l2.698-12.68h3.274l-.404 1.906c-.742 3.488-1.486 6.976-2.22 10.467-.05.242-.136.32-.386.314-.898-.017-1.796-.007-2.693-.007h-.27z"/></g></g><defs><clipPath id="clip0_258_296"><path fill="#fff" transform="translate(1.3 10.5)" d="M0 0h82.4v24H0z"/></clipPath><clipPath id="clip1_258_296"><path fill="#fff" transform="translate(1.3 10.5)" d="M0 0h82.4v24H0z"/></clipPath></defs></svg>