<svg width="160" height="87" fill="none" xmlns="http://www.w3.org/2000/svg"><g clip-path="url(#clip0_258_163)"><g clip-path="url(#clip1_258_163)"><path d="M37.144.286h87.449v70.246l-87.45 12.902V.286z" fill="#CC0034"/><path opacity=".9" d="M65.547 30.636C55.6 23.346 43.595 4.152 43.595 3.87L42.52 2.078l25.446 21.504-2.42 7.054z" fill="url(#paint0_linear_258_163)"/><path opacity=".9" d="M115.274 2.436l-15.77 17.832 1.752 5.823 13.142-20.743.876-2.912z" fill="url(#paint1_linear_258_163)"/><path opacity=".9" d="M53.63 35.642L41.444 8.171 53.63 27.689v7.953z" fill="url(#paint2_linear_258_163)"/><path opacity=".9" d="M103.089 45.04l14.336-41.17c-3.015 15.24-8.593 44.368-8.893 49.42.214.473.262.756.07.756-.078 0-.099-.264-.07-.756-.773-1.709-3.717-5.899-5.443-8.25z" fill="url(#paint3_linear_258_163)"/><path opacity=".9" d="M120.644 3.153l-1.22 9.323c-1.551 17.652-.992 44.691-.324 50.52.362.695.492 1.13.254 1.13-.083 0-.169-.396-.254-1.13-.977-1.886-3.648-5.682-5.259-7.875l5.583-42.645c.314-3.579.716-6.77 1.22-9.323z" fill="url(#paint4_linear_258_163)"/><path fill-rule="evenodd" clip-rule="evenodd" d="M38.563 29.212c-1.298-1.222-3.131-1.835-5.5-1.835h-5.867v3.835h6.552c1.158 0 1.938.337 2.342 1.012.403.658.605 1.342.605 2.054 0 .42-.096.858-.29 1.315a3.045 3.045 0 01-.947 1.204c-.138.103-.287.19-.445.258l-3.537-5.746h-4.28l3.682 5.981h-3.682v10.242h3.815V41.15h2.244l3.927 6.378h4.28l-4.357-7.076c.188-.095.367-.2.537-.315 1.018-.676 1.746-1.534 2.184-2.575a8.494 8.494 0 00.684-3.395c0-2.1-.648-3.751-1.947-4.956zM48.965 44.04h6.286l1.468 3.83h4.328l-8.553-20.352h-.206L43.737 47.87h3.682l1.547-3.831h-.001zm3.22-8.008l1.829 4.762h-3.735l1.906-4.762zm23.707 3.405c-.55-.78-1.323-1.41-2.319-1.889a4.623 4.623 0 001.675-1.756c.395-.745.592-1.605.592-2.58 0-1.597-.575-2.81-1.726-3.644-1.15-.852-2.73-1.278-4.74-1.278H63.81v19.58h6.311c1.89 0 3.46-.46 4.715-1.383 1.27-.94 1.906-2.403 1.906-4.39 0-1.01-.284-1.897-.85-2.66zm-6.08-3.14h-2.266v-4.282h2.009c.755 0 1.347.177 1.777.531.43.337.644.834.644 1.49 0 .639-.19 1.18-.566 1.624-.379.425-.91.638-1.598.638zm2.242 7.45c-.533.355-1.237.532-2.113.532h-2.395v-4.256h2.138c2.129 0 3.194.691 3.194 2.075 0 .727-.275 1.276-.824 1.65zm44.118-15.457v20.379h-.103l-13.266-12.37.078 11.573h-3.787V27.517h.154l13.241 12.557-.078-11.785h3.761zm7.974 15.75h6.286l1.468 3.83h4.328l-8.553-20.352h-.206l-8.552 20.352h3.684l1.545-3.831zm3.22-8.008l1.829 4.762h-3.735l1.906-4.762zm-33.012-7.037H81.03v3.935h13.323v-3.935zm-6.661 19.183c3.678 0 6.66-3.082 6.66-6.885s-2.981-6.886-6.66-6.886c-3.68 0-6.662 3.082-6.662 6.886 0 3.802 2.982 6.885 6.662 6.885zm.002-3.935c1.577 0 2.855-1.32 2.855-2.95 0-1.63-1.279-2.952-2.855-2.952-1.577 0-2.855 1.321-2.855 2.951 0 1.63 1.278 2.951 2.855 2.951z" fill="#000" opacity=".5"/><path fill-rule="evenodd" clip-rule="evenodd" d="M37.846 30.431c-1.297-1.223-3.131-1.835-5.5-1.835H26.48v3.834h6.552c1.158 0 1.938.337 2.342 1.013.404.657.605 1.342.605 2.054 0 .42-.096.858-.289 1.314-.193.457-.509.858-.947 1.204-.138.104-.288.19-.446.258l-3.537-5.745h-4.28l3.682 5.98H26.48V48.75h3.816v-6.38h2.243l3.927 6.379h4.28l-4.356-7.077c.187-.095.366-.2.537-.316 1.017-.675 1.745-1.534 2.184-2.574a8.495 8.495 0 00.684-3.396c0-2.099-.65-3.75-1.947-4.956l-.001.001zm10.403 14.827h6.286l1.468 3.831h4.327l-8.552-20.352h-.207L43.02 49.088h3.683l1.546-3.832zm3.22-8.007l1.829 4.761h-3.735l1.906-4.761zm23.707 3.404c-.55-.78-1.323-1.409-2.319-1.888a4.623 4.623 0 001.675-1.757c.395-.744.592-1.604.592-2.58 0-1.596-.575-2.81-1.726-3.644-1.15-.852-2.73-1.277-4.74-1.277h-5.564v19.58h6.311c1.89 0 3.46-.46 4.714-1.383 1.271-.94 1.907-2.404 1.907-4.39 0-1.01-.284-1.898-.85-2.66zm-6.08-3.139H66.83v-4.283h2.009c.755 0 1.347.178 1.777.533.43.336.644.833.644 1.489 0 .638-.19 1.18-.566 1.623-.379.426-.91.639-1.598.639zm2.242 7.45c-.533.354-1.237.531-2.113.531H66.83v-4.256h2.138c2.129 0 3.194.692 3.194 2.075 0 .727-.275 1.277-.825 1.65zm44.118-15.457v20.378h-.103l-13.266-12.37.077 11.572h-3.787V28.737h.154l13.241 12.556-.077-11.785h3.761zm7.974 15.749h6.285l1.469 3.831h4.328l-8.553-20.352h-.206l-8.552 20.352h3.684l1.545-3.831zm3.22-8.007l1.829 4.761h-3.735l1.906-4.761zm-33.013-7.039H80.314v3.936h13.323v-3.936zm-6.661 19.184c3.678 0 6.661-3.082 6.661-6.886 0-3.803-2.982-6.886-6.661-6.886-3.68 0-6.662 3.083-6.662 6.886s2.983 6.886 6.662 6.886zm.002-3.935c1.577 0 2.855-1.321 2.855-2.951 0-1.63-1.279-2.951-2.855-2.951-1.577 0-2.855 1.322-2.855 2.95 0 1.63 1.278 2.952 2.855 2.952z" fill="#000" opacity=".15"/><path d="M23.524 28.612h4.558l10.636 16.713h-4.559L23.525 28.612z" fill="#fff"/><path opacity=".2" fill-rule="evenodd" clip-rule="evenodd" d="M35.677 40.218l-2.383-3.503c-.413.162-.903.243-1.47.243h-3.238l2.707 3.978h.562c1.507 0 2.781-.239 3.822-.718zm-6.1-9.58h-5.822.024l-.255-2.026h4.738l1.34 2.026h-.024z" fill="#000"/><path fill-rule="evenodd" clip-rule="evenodd" d="M35.631 26.451c-1.383-1.26-3.335-1.89-5.857-1.89h-6.25v3.95h6.978c1.233 0 2.065.348 2.495 1.044.43.677.644 1.382.644 2.116 0 .432-.102.884-.308 1.354-.206.47-.542.884-1.008 1.242-.468.338-1.084.507-1.85.507h-6.95v10.551h4.064v-6.573h2.913c1.7 0 3.083-.348 4.149-1.044 1.083-.695 1.858-1.58 2.325-2.652a8.505 8.505 0 00.729-3.498c0-2.163-.691-3.865-2.074-5.107z" fill="#fff"/><path d="M53.403 41.727h-6.695l-1.645 3.947H41.14l9.108-20.969h.22l9.108 20.97h-4.61l-1.563-3.948zm-1.316-3.344l-1.949-4.906-2.03 4.906h3.979zm20.83-3.344c1.061.493 1.884 1.142 2.469 1.946.604.786.905 1.7.905 2.741 0 2.047-.676 3.554-2.03 4.523-1.334.95-3.008 1.425-5.02 1.425H62.52V25.5h5.925c2.14 0 3.823.439 5.049 1.316 1.225.859 1.838 2.11 1.838 3.756 0 1.004-.21 1.89-.631 2.658a4.844 4.844 0 01-1.784 1.81zm-6.42-1.288h2.415c.731 0 1.298-.22 1.7-.658.403-.457.604-1.014.604-1.672 0-.676-.229-1.188-.686-1.535-.457-.365-1.088-.548-1.893-.548h-2.14v4.413zm2.552 8.223c.932 0 1.683-.182 2.25-.548.585-.384.877-.95.877-1.7 0-1.425-1.134-2.138-3.402-2.138h-2.276v4.386h2.551zM118.287 25.5v20.996h-.11L104.048 33.75l.082 11.924h-4.032V24.705h.164l14.101 12.938-.082-12.142h4.006zm15.186 16.227h-6.694l-1.647 3.947h-3.923l9.109-20.969h.219l9.109 20.97h-4.61l-1.563-3.948zm-1.317-3.344l-1.948-4.906-2.03 4.906h3.978zM80.859 26.226h14.19v4.054H80.86v-4.054z" fill="#fff"/><path fill-rule="evenodd" clip-rule="evenodd" d="M87.954 45.991a7.094 7.094 0 100-14.19 7.095 7.095 0 000 14.19zm.002-4.054a3.04 3.04 0 100-6.08 3.04 3.04 0 000 6.08z" fill="#ECFD00"/></g></g><defs><linearGradient id="paint0_linear_258_163" x1="59.723" y1="3.87" x2="59.723" y2="26.091" gradientUnits="userSpaceOnUse"><stop stop-color="#951B33"/><stop offset="1" stop-color="#A21B36" stop-opacity="0"/></linearGradient><linearGradient id="paint1_linear_258_163" x1="107.389" y1="2.436" x2="107.389" y2="26.091" gradientUnits="userSpaceOnUse"><stop stop-color="#8F142C"/><stop offset="1" stop-color="#97142E" stop-opacity="0"/></linearGradient><linearGradient id="paint2_linear_258_163" x1="47.537" y1="8.171" x2="47.537" y2="35.642" gradientUnits="userSpaceOnUse"><stop stop-color="#9B1732"/><stop offset="1" stop-color="#A21B36" stop-opacity="0"/></linearGradient><linearGradient id="paint3_linear_258_163" x1="110.257" y1="3.87" x2="110.257" y2="54.046" gradientUnits="userSpaceOnUse"><stop stop-color="#9D1631"/><stop offset="1" stop-color="#A21B36" stop-opacity="0"/></linearGradient><linearGradient id="paint4_linear_258_163" x1="113.482" y1="3.153" x2="113.482" y2="53.329" gradientUnits="userSpaceOnUse"><stop stop-color="#A21B36"/><stop offset="1" stop-color="#A21B36" stop-opacity="0"/></linearGradient><clipPath id="clip0_258_163"><path fill="#fff" transform="translate(4.357 .286)" d="M0 0h155.173v85.715H0z"/></clipPath><clipPath id="clip1_258_163"><path fill="#fff" transform="translate(22.09 .286)" d="M0 0h119.705v83.148H0z"/></clipPath></defs></svg>