<svg width="140" height="97" fill="none" xmlns="http://www.w3.org/2000/svg"><g clip-path="url(#clip0_258_330)"><path d="M18.032 0h101.441v81.484L18.033 96.451V-.001z" fill="#CC0034"/><path opacity=".9" d="M50.98 35.205C39.443 26.749 25.516 4.484 25.516 4.156l-1.247-2.078 29.517 24.944-2.806 8.183z" fill="url(#paint0_linear_258_330)"/><path opacity=".9" d="M108.664 2.494L90.371 23.178l2.032 6.755L107.648 5.87l1.016-3.377z" fill="url(#paint1_linear_258_330)"/><path opacity=".9" d="M37.157 41.012L23.022 9.146l14.135 22.64v9.226z" fill="url(#paint2_linear_258_330)"/><path opacity=".9" d="M94.529 51.914l16.629-47.757c-3.497 17.679-9.968 51.466-10.315 57.326.248.549.303.877.081.877-.09 0-.114-.306-.081-.877-.897-1.981-4.311-6.842-6.314-9.57z" fill="url(#paint3_linear_258_330)"/><path opacity=".9" d="M114.893 3.325l-1.416 10.814c-1.799 20.476-1.15 51.842-.375 58.603.419.806.571 1.312.295 1.312-.097 0-.197-.46-.295-1.312-1.134-2.187-4.232-6.59-6.101-9.135l6.476-49.468c.365-4.152.831-7.854 1.416-10.814z" fill="url(#paint4_linear_258_330)"/><path fill-rule="evenodd" clip-rule="evenodd" d="M19.679 33.554c-1.505-1.419-3.632-2.129-6.38-2.129H6.494v4.448h7.6c1.344 0 2.249.39 2.717 1.175.468.762.702 1.556.702 2.382 0 .487-.111.995-.335 1.525-.225.529-.59.995-1.1 1.397-.16.12-.333.22-.517.299l-4.102-6.665H6.494l4.27 6.938h-4.27v11.88h4.425v-7.402h2.603l4.555 7.4h4.964l-5.053-8.21c.217-.11.425-.232.623-.365 1.18-.784 2.025-1.78 2.534-2.987a9.852 9.852 0 00.793-3.938c0-2.435-.753-4.352-2.258-5.75l-.001.002zm12.066 17.198h7.292l1.703 4.444h5.02l-9.92-23.609h-.24l-9.92 23.608h4.273l1.793-4.444v.001zm3.736-9.288l2.121 5.523H33.27l2.211-5.523zm27.5 3.949c-.638-.905-1.535-1.635-2.69-2.19a5.364 5.364 0 001.942-2.038c.458-.864.687-1.862.687-2.993 0-1.852-.667-3.26-2.002-4.228-1.335-.987-3.167-1.481-5.498-1.481h-6.454v22.713h7.32c2.192 0 4.015-.535 5.469-1.604 1.474-1.09 2.212-2.788 2.212-5.093 0-1.172-.33-2.201-.986-3.086zm-7.053-3.642h-2.63v-4.968h2.331c.877 0 1.564.206 2.063.617.498.39.746.967.746 1.729 0 .74-.22 1.367-.657 1.882-.439.494-1.056.74-1.853.74zm2.6 8.642c-.618.411-1.434.617-2.45.617h-2.78v-4.938h2.481c2.47 0 3.705.803 3.705 2.407 0 .844-.32 1.481-.956 1.914zm51.178-17.93v23.639h-.12l-15.388-14.35.09 13.425h-4.393v-23.61h.178l15.36 14.566-.09-13.671h4.363zm9.249 18.269h7.291l1.703 4.444h5.021l-9.921-23.609h-.239l-9.921 23.608h4.273l1.793-4.444v.001zm3.735-9.288l2.122 5.523h-4.333l2.211-5.523zM84.396 33.3H68.942v4.565h15.454V33.3zM76.67 55.553c4.267 0 7.727-3.575 7.727-7.987s-3.459-7.988-7.727-7.988c-4.268 0-7.727 3.575-7.727 7.988 0 4.41 3.46 7.987 7.727 7.987zm.003-4.565c1.829 0 3.312-1.532 3.312-3.423 0-1.89-1.484-3.423-3.312-3.423-1.83 0-3.312 1.532-3.312 3.423 0 1.89 1.483 3.423 3.312 3.423z" fill="#000" opacity=".5"/><path fill-rule="evenodd" clip-rule="evenodd" d="M18.848 34.967c-1.505-1.419-3.632-2.129-6.38-2.129H5.662v4.448h7.6c1.343 0 2.249.39 2.717 1.175.468.762.702 1.556.702 2.382 0 .487-.112.995-.335 1.525-.225.53-.59.995-1.1 1.397-.16.12-.333.22-.517.3l-4.102-6.666H5.663l4.27 6.938H5.662v11.88h4.426v-7.402h2.602l4.556 7.4h4.964l-5.053-8.209c.217-.11.425-.233.623-.366 1.18-.784 2.024-1.779 2.533-2.986a9.852 9.852 0 00.794-3.939c0-2.435-.753-4.351-2.259-5.749v.001zm12.067 17.2h7.292l1.703 4.443h5.02l-9.922-23.609h-.24L24.85 56.61h4.272l1.794-4.445v.001zm3.736-9.29l2.12 5.524H32.44l2.21-5.523zm27.5 3.95c-.639-.904-1.536-1.634-2.69-2.19a5.363 5.363 0 001.942-2.038c.458-.863.686-1.86.686-2.993 0-1.851-.666-3.26-2.001-4.227-1.335-.988-3.168-1.482-5.498-1.482h-6.455V56.61h7.32c2.193 0 4.015-.534 5.47-1.604 1.474-1.09 2.211-2.788 2.211-5.092 0-1.173-.329-2.202-.986-3.087zm-7.054-3.64h-2.629v-4.97H54.8c.876 0 1.563.206 2.062.618.498.39.747.967.747 1.728 0 .74-.22 1.368-.657 1.882-.44.494-1.056.741-1.854.741zm2.6 8.64c-.617.412-1.434.617-2.45.617h-2.779v-4.938h2.48c2.47 0 3.706.803 3.706 2.408 0 .843-.32 1.481-.957 1.913zm51.178-17.93v23.639h-.12l-15.389-14.35.09 13.424h-4.392V33.001h.178l15.359 14.566-.089-13.671h4.363zm9.25 18.27h7.291l1.703 4.443h5.02l-9.92-23.608h-.24l-9.92 23.608h4.273l1.793-4.444zm3.735-9.29l2.121 5.524h-4.332l2.211-5.523zm-38.295-8.164H68.11v4.565h15.455v-4.565zm-7.727 22.253c4.267 0 7.727-3.575 7.727-7.987s-3.46-7.988-7.727-7.988c-4.268 0-7.728 3.576-7.728 7.988 0 4.411 3.46 7.987 7.728 7.987zm.002-4.565c1.83 0 3.312-1.532 3.312-3.423 0-1.89-1.483-3.423-3.312-3.423-1.829 0-3.311 1.533-3.311 3.423 0 1.891 1.482 3.423 3.311 3.423z" fill="#000" opacity=".15"/><path d="M2.234 32.857h5.288l12.336 19.387h-5.287L2.234 32.857z" fill="#fff"/><path opacity=".2" fill-rule="evenodd" clip-rule="evenodd" d="M16.331 46.32l-2.764-4.063c-.48.188-1.047.282-1.704.282H8.106l3.14 4.614h.652c1.748 0 3.226-.277 4.433-.833zM9.256 35.207H2.502h.028l-.296-2.35H7.73l1.554 2.35h-.028z" fill="#000"/><path fill-rule="evenodd" clip-rule="evenodd" d="M16.278 30.35c-1.604-1.461-3.869-2.192-6.794-2.192h-7.25v4.581h8.095c1.43 0 2.394.404 2.893 1.212.5.785.748 1.603.748 2.454 0 .502-.119 1.025-.358 1.57-.238.546-.628 1.026-1.17 1.44-.542.393-1.257.59-2.145.59H2.234v12.239H6.95v-7.625h3.38c1.972 0 3.575-.404 4.812-1.211 1.256-.807 2.156-1.833 2.698-3.077a9.866 9.866 0 00.845-4.057c0-2.509-.802-4.484-2.406-5.924z" fill="#fff"/><path d="M36.894 48.07h-7.766l-1.91 4.58h-4.55l10.566-24.325h.254L44.054 52.65h-5.347l-1.813-4.579zm-1.528-3.879l-2.26-5.691-2.354 5.691h4.614zm24.164-3.878c1.23.572 2.185 1.324 2.864 2.257.7.911 1.05 1.97 1.05 3.18 0 2.374-.785 4.122-2.355 5.246-1.548 1.102-3.49 1.653-5.824 1.653h-7.797V29.247h6.874c2.483 0 4.435.51 5.857 1.527 1.421.996 2.131 2.448 2.131 4.356 0 1.166-.243 2.194-.731 3.084a5.62 5.62 0 01-2.069 2.099zm-7.447-1.495h2.8c.849 0 1.506-.254 1.974-.763.466-.53.7-1.176.7-1.94 0-.784-.266-1.377-.796-1.78-.53-.424-1.262-.636-2.196-.636h-2.482v5.12zm2.96 9.538c1.081 0 1.952-.21 2.61-.635.678-.445 1.017-1.102 1.017-1.971 0-1.654-1.315-2.48-3.946-2.48h-2.64v5.086h2.96zm57.115-19.109v24.356h-.128L95.641 38.818l.096 13.831h-4.678V28.325h.19l16.358 15.008-.095-14.085h4.646zm17.616 18.823h-7.765l-1.91 4.58h-4.551l10.566-24.325h.254l10.567 24.324h-5.347l-1.814-4.579zm-1.527-3.879l-2.26-5.691-2.355 5.691h4.615zM68.743 30.09h16.46v4.702h-16.46V30.09z" fill="#fff"/><path fill-rule="evenodd" clip-rule="evenodd" d="M76.973 53.017a8.23 8.23 0 100-16.46 8.23 8.23 0 000 16.46zm.002-4.703a3.527 3.527 0 100-7.054 3.527 3.527 0 000 7.054z" fill="#ECFD00"/></g><defs><linearGradient id="paint0_linear_258_330" x1="44.224" y1="4.156" x2="44.224" y2="29.932" gradientUnits="userSpaceOnUse"><stop stop-color="#951B33"/><stop offset="1" stop-color="#A21B36" stop-opacity="0"/></linearGradient><linearGradient id="paint1_linear_258_330" x1="99.517" y1="2.494" x2="99.517" y2="29.933" gradientUnits="userSpaceOnUse"><stop stop-color="#8F142C"/><stop offset="1" stop-color="#97142E" stop-opacity="0"/></linearGradient><linearGradient id="paint2_linear_258_330" x1="30.089" y1="9.146" x2="30.089" y2="41.012" gradientUnits="userSpaceOnUse"><stop stop-color="#9B1732"/><stop offset="1" stop-color="#A21B36" stop-opacity="0"/></linearGradient><linearGradient id="paint3_linear_258_330" x1="102.843" y1="4.157" x2="102.843" y2="62.36" gradientUnits="userSpaceOnUse"><stop stop-color="#9D1631"/><stop offset="1" stop-color="#A21B36" stop-opacity="0"/></linearGradient><linearGradient id="paint4_linear_258_330" x1="106.585" y1="3.325" x2="106.585" y2="61.528" gradientUnits="userSpaceOnUse"><stop stop-color="#A21B36"/><stop offset="1" stop-color="#A21B36" stop-opacity="0"/></linearGradient><clipPath id="clip0_258_330"><path fill="#fff" transform="translate(.572)" d="M0 0h138.857v96.452H0z"/></clipPath></defs></svg>